# xmcd
#
# Track frame offsets:
#	150
#	12838
#	41549
#	76436
#	111315
#	139515
#	178991
#
# Disc length: 2394 seconds
#
# Revision: 1
# Processed by: cddbd v1.5.2PL0 Copyright (c) Steve Scherf et al.
# Submitted via: audiograbber 1.83.01
#
DISCID=56095807
DTITLE=Freaks - CD Single CD1
DYEAR=2007
DGENRE=
TTITLE0=The Creeps (Get On The Dancefloor) (Radio Edit)
TTITLE1=The Creeps (Get On The Dancefloor) (Vandalism Vocal Mix)
TTITLE2=The Creeps (Get On The Dancefloor) (Thomas Gold Vocal Remix)
TTITLE3=The Creeps (Get On The Dancefloor) (Thomas Gold Remix)
TTITLE4=The Creeps (Get On The Dancefloor) (Micky Slim Remix)
TTITLE5=The Creeps (Get On The Dancefloor) (Micky Slim Dub Mix)
TTITLE6=Data Track
EXTD=
EXTT0=
EXTT1=
EXTT2=
EXTT3=
EXTT4=
EXTT5=
EXTT6=
PLAYORDER=
